<svg xmlns="http://www.w3.org/2000/svg" id="export" class="canvas" preserveAspectRatio="xMidYMid meet" style="" width="174" height="605"><rect id="background" fill="#fff" pointer-events="all" width="174" height="605"/><g id="origin" transform="translate(7.90048828125, 7.90048828125) scale(1)"><g id="clusters" class="clusters"/><g id="edge-paths" class="edge-paths"><defs><marker id="arrowhead" viewBox="0 0 10 10" refX="9" refY="5" markerUnits="strokeWidth" markerWidth="8" markerHeight="6" orient="auto" style="fill: rgb(0, 0, 0);"><path d="M 0 0 L 10 5 L 0 10 L 4 5 z" style="stroke-width: 1;"/></marker><marker id="arrowhead-select" viewBox="0 0 10 10" refX="9" refY="5" markerUnits="strokeWidth" markerWidth="8" markerHeight="6" orient="auto" style="fill: rgb(238, 0, 0);"><path d="M 0 0 L 10 5 L 0 10 L 4 5 z" style="stroke-width: 1;"/></marker><marker id="arrowhead-hover" viewBox="0 0 10 10" refX="9" refY="5" markerUnits="strokeWidth" markerWidth="8" markerHeight="6" orient="auto"><path d="M 0 0 L 10 5 L 0 10 L 4 5 z" style="stroke-width: 1;"/></marker></defs><path id="edge-input" class="edge-path" d="M44.3203125,23L44.3203125,24.666666666666668C44.3203125,26.333333333333332,44.3203125,29.666666666666668,44.3203125,35C44.3203125,40.333333333333336,44.3203125,47.666666666666664,44.3203125,55C44.3203125,62.333333333333336,44.3203125,69.66666666666667,44.3203125,75C44.3203125,80.33333333333333,44.3203125,83.66666666666667,44.3203125,85.33333333333333L44.3203125,87" style="stroke: rgb(0, 0, 0); stroke-width: 1px; fill: none; marker-end: url(&quot;#arrowhead&quot;);"/><path class="edge-path-hit-test" d="M44.3203125,23L44.3203125,24.666666666666668C44.3203125,26.333333333333332,44.3203125,29.666666666666668,44.3203125,35C44.3203125,40.333333333333336,44.3203125,47.666666666666664,44.3203125,55C44.3203125,62.333333333333336,44.3203125,69.66666666666667,44.3203125,75C44.3203125,80.33333333333333,44.3203125,83.66666666666667,44.3203125,85.33333333333333L44.3203125,87" style="pointer-events: stroke; stroke-width: 0.5em; fill: none; stroke: rgb(0, 0, 0); stroke-opacity: 0.001;"/><path id="edge-/layer1/Gemm_output_0" class="edge-path" d="M44.3203125,158L44.3203125,161.66666666666666C44.3203125,165.33333333333334,44.3203125,172.66666666666666,44.3203125,180C44.3203125,187.33333333333334,44.3203125,194.66666666666666,44.3203125,198.33333333333334L44.3203125,202" style="stroke: rgb(0, 0, 0); stroke-width: 1px; fill: none; marker-end: url(&quot;#arrowhead&quot;);"/><path class="edge-path-hit-test" d="M44.3203125,158L44.3203125,161.66666666666666C44.3203125,165.33333333333334,44.3203125,172.66666666666666,44.3203125,180C44.3203125,187.33333333333334,44.3203125,194.66666666666666,44.3203125,198.33333333333334L44.3203125,202" style="pointer-events: stroke; stroke-width: 0.5em; fill: none; stroke: rgb(0, 0, 0); stroke-opacity: 0.001;"/><path id="edge-/Relu_output_0" class="edge-path" d="M44.3203125,225L44.3203125,228.66666666666666C44.3203125,232.33333333333334,44.3203125,239.66666666666666,44.3203125,247C44.3203125,254.33333333333334,44.3203125,261.6666666666667,44.3203125,265.3333333333333L44.3203125,269" style="stroke: rgb(0, 0, 0); stroke-width: 1px; fill: none; marker-end: url(&quot;#arrowhead&quot;);"/><path class="edge-path-hit-test" d="M44.3203125,225L44.3203125,228.66666666666666C44.3203125,232.33333333333334,44.3203125,239.66666666666666,44.3203125,247C44.3203125,254.33333333333334,44.3203125,261.6666666666667,44.3203125,265.3333333333333L44.3203125,269" style="pointer-events: stroke; stroke-width: 0.5em; fill: none; stroke: rgb(0, 0, 0); stroke-opacity: 0.001;"/><path id="edge-/layer2/Gemm_output_0" class="edge-path" d="M44.3203125,340L44.3203125,343.6666666666667C44.3203125,347.3333333333333,44.3203125,354.6666666666667,44.3203125,362C44.3203125,369.3333333333333,44.3203125,376.6666666666667,44.3203125,380.3333333333333L44.3203125,384" style="stroke: rgb(0, 0, 0); stroke-width: 1px; fill: none; marker-end: url(&quot;#arrowhead&quot;);"/><path class="edge-path-hit-test" d="M44.3203125,340L44.3203125,343.6666666666667C44.3203125,347.3333333333333,44.3203125,354.6666666666667,44.3203125,362C44.3203125,369.3333333333333,44.3203125,376.6666666666667,44.3203125,380.3333333333333L44.3203125,384" style="pointer-events: stroke; stroke-width: 0.5em; fill: none; stroke: rgb(0, 0, 0); stroke-opacity: 0.001;"/><path id="edge-/Relu_1_output_0" class="edge-path" d="M44.3203125,407L44.3203125,410.6666666666667C44.3203125,414.3333333333333,44.3203125,421.6666666666667,44.3203125,429C44.3203125,436.3333333333333,44.3203125,443.6666666666667,44.3203125,447.3333333333333L44.3203125,451" style="stroke: rgb(0, 0, 0); stroke-width: 1px; fill: none; marker-end: url(&quot;#arrowhead&quot;);"/><path class="edge-path-hit-test" d="M44.3203125,407L44.3203125,410.6666666666667C44.3203125,414.3333333333333,44.3203125,421.6666666666667,44.3203125,429C44.3203125,436.3333333333333,44.3203125,443.6666666666667,44.3203125,447.3333333333333L44.3203125,451" style="pointer-events: stroke; stroke-width: 0.5em; fill: none; stroke: rgb(0, 0, 0); stroke-opacity: 0.001;"/><path id="edge-output" class="edge-path" d="M44.3203125,522L44.3203125,525.6666666666666C44.3203125,529.3333333333334,44.3203125,536.6666666666666,44.3203125,544C44.3203125,551.3333333333334,44.3203125,558.6666666666666,44.3203125,562.3333333333334L44.3203125,566" style="stroke: rgb(0, 0, 0); stroke-width: 1px; fill: none; marker-end: url(&quot;#arrowhead&quot;);"/><path class="edge-path-hit-test" d="M44.3203125,522L44.3203125,525.6666666666666C44.3203125,529.3333333333334,44.3203125,536.6666666666666,44.3203125,544C44.3203125,551.3333333333334,44.3203125,558.6666666666666,44.3203125,562.3333333333334L44.3203125,566" style="pointer-events: stroke; stroke-width: 0.5em; fill: none; stroke: rgb(0, 0, 0); stroke-opacity: 0.001;"/></g><g id="edge-labels" class="edge-labels"><text class="edge-label" id="edge-label-edge-input" style="opacity: 1; font-family: -apple-system, BlinkMacSystemFont, &quot;Segoe WPC&quot;, &quot;Segoe UI&quot;, Ubuntu, &quot;Droid Sans&quot;, sans-serif, &quot;PingFang SC&quot;; font-size: 10px;" transform="translate(49.3203125,48)"><tspan xml:space="preserve" dy="1em" x="1">input</tspan></text><text class="edge-label" id="edge-label-edge-/layer1/Gemm_output_0" style="opacity: 1; font-family: -apple-system, BlinkMacSystemFont, &quot;Segoe WPC&quot;, &quot;Segoe UI&quot;, Ubuntu, &quot;Droid Sans&quot;, sans-serif, &quot;PingFang SC&quot;; font-size: 10px;" transform="translate(49.3203125,173)"><tspan xml:space="preserve" dy="1em" x="1">/layer1/Gemm_output_0</tspan></text><text class="edge-label" id="edge-label-edge-/Relu_output_0" style="opacity: 1; font-family: -apple-system, BlinkMacSystemFont, &quot;Segoe WPC&quot;, &quot;Segoe UI&quot;, Ubuntu, &quot;Droid Sans&quot;, sans-serif, &quot;PingFang SC&quot;; font-size: 10px;" transform="translate(49.3203125,240)"><tspan xml:space="preserve" dy="1em" x="1">/Relu_output_0</tspan></text><text class="edge-label" id="edge-label-edge-/layer2/Gemm_output_0" style="opacity: 1; font-family: -apple-system, BlinkMacSystemFont, &quot;Segoe WPC&quot;, &quot;Segoe UI&quot;, Ubuntu, &quot;Droid Sans&quot;, sans-serif, &quot;PingFang SC&quot;; font-size: 10px;" transform="translate(49.3203125,355)"><tspan xml:space="preserve" dy="1em" x="1">/layer2/Gemm_output_0</tspan></text><text class="edge-label" id="edge-label-edge-/Relu_1_output_0" style="opacity: 1; font-family: -apple-system, BlinkMacSystemFont, &quot;Segoe WPC&quot;, &quot;Segoe UI&quot;, Ubuntu, &quot;Droid Sans&quot;, sans-serif, &quot;PingFang SC&quot;; font-size: 10px;" transform="translate(49.3203125,422)"><tspan xml:space="preserve" dy="1em" x="1">/Relu_1_output_0</tspan></text><text class="edge-label" id="edge-label-edge-output" style="opacity: 1; font-family: -apple-system, BlinkMacSystemFont, &quot;Segoe WPC&quot;, &quot;Segoe UI&quot;, Ubuntu, &quot;Droid Sans&quot;, sans-serif, &quot;PingFang SC&quot;; font-size: 10px;" transform="translate(49.3203125,537)"><tspan xml:space="preserve" dy="1em" x="1">output</tspan></text></g><g id="nodes" class="nodes"><g id="input-name-input" class="node graph-input" style="" transform="translate(24.52978515625,0)"><g class="node-item graph-item-input" transform="translate(0,0)"><path d="M5,0h29.5810546875a5,5 0 0 1 5,5v13a5,5 0 0 1 -5,5h-29.5810546875a5,5 0 0 1 -5,-5v-13a5,5 0 0 1 5,-5z" style="stroke: rgb(0, 0, 0); fill: rgb(238, 238, 238); stroke-width: 0;"/><text x="6" y="16" style="font-family: -apple-system, BlinkMacSystemFont, &quot;Segoe WPC&quot;, &quot;Segoe UI&quot;, Ubuntu, &quot;Droid Sans&quot;, sans-serif, &quot;PingFang SC&quot;; font-size: 11px; text-rendering: geometricprecision; user-select: none;">input</text><title>float32[1,6]</title></g><path class="node node-border" d="M5,0h29.5810546875a5,5 0 0 1 5,5v13a5,5 0 0 1 -5,5h-29.5810546875a5,5 0 0 1 -5,-5v-13a5,5 0 0 1 5,-5z" style="stroke: rgb(51, 51, 51); fill: none; stroke-width: 1px;"/></g><g id="node-name-/layer1/Gemm" class="node graph-node" style="" transform="translate(1.859375,87)"><g class="node-item node-item-type node-item-type-layer" transform="translate(0,0)"><path d="M5,0h74.921875a5,5 0 0 1 5,5v18a0,0 0 0 1 0,0h-84.921875a0,0 0 0 1 0,0v-18a5,5 0 0 1 5,-5z" style="stroke: rgb(0, 0, 0); fill: rgb(51, 85, 136); stroke-width: 0;"/><text x="6" y="16" style="font-family: -apple-system, BlinkMacSystemFont, &quot;Segoe WPC&quot;, &quot;Segoe UI&quot;, Ubuntu, &quot;Droid Sans&quot;, sans-serif, &quot;PingFang SC&quot;; font-size: 11px; text-rendering: geometricprecision; user-select: none; fill: rgb(255, 255, 255);">/layer1/Gemm</text><title>Gemm</title></g><g class="node-attribute-list" transform="translate(0,23)"><path d="M0,0h84.921875a0,0 0 0 1 0,0v43a5,5 0 0 1 -5,5h-74.921875a5,5 0 0 1 -5,-5v-43a0,0 0 0 1 0,0z" style="stroke: rgb(0, 0, 0); fill: rgb(255, 255, 255); stroke-width: 0;"/><g class="node-attribute"><text xml:space="preserve" x="6" y="14" style="font-family: -apple-system, BlinkMacSystemFont, &quot;Segoe WPC&quot;, &quot;Segoe UI&quot;, Ubuntu, &quot;Droid Sans&quot;, sans-serif, &quot;PingFang SC&quot;; font-size: 9px; font-weight: normal; text-rendering: geometricprecision; user-select: none;"><title>float32[32,6]</title><tspan style="font-weight: bold;">B</tspan><tspan>〈32×6〉</tspan></text></g><g class="node-attribute"><text xml:space="preserve" x="6" y="28" style="font-family: -apple-system, BlinkMacSystemFont, &quot;Segoe WPC&quot;, &quot;Segoe UI&quot;, Ubuntu, &quot;Droid Sans&quot;, sans-serif, &quot;PingFang SC&quot;; font-size: 9px; font-weight: normal; text-rendering: geometricprecision; user-select: none;"><title>float32[32]</title><tspan style="font-weight: bold;">C</tspan><tspan>〈32〉</tspan></text></g><g class="node-attribute"><text xml:space="preserve" x="6" y="42" style="font-family: -apple-system, BlinkMacSystemFont, &quot;Segoe WPC&quot;, &quot;Segoe UI&quot;, Ubuntu, &quot;Droid Sans&quot;, sans-serif, &quot;PingFang SC&quot;; font-size: 9px; font-weight: normal; text-rendering: geometricprecision; user-select: none;"><title>int64</title><tspan>transB</tspan><tspan> = 1</tspan></text></g><line class="node" x1="0" x2="84.921875" y1="0" y2="0" style="stroke: rgb(51, 51, 51); fill: none; stroke-width: 1px;"/></g><path class="node node-border" d="M5,0h74.921875a5,5 0 0 1 5,5v61a5,5 0 0 1 -5,5h-74.921875a5,5 0 0 1 -5,-5v-61a5,5 0 0 1 5,-5z" style="stroke: rgb(51, 51, 51); fill: none; stroke-width: 1px;"/></g><g id="node-name-/Relu" class="node graph-node" style="" transform="translate(24.2265625,202)"><g class="node-item node-item-type node-item-type-activation" transform="translate(0,0)"><path d="M5,0h30.1875a5,5 0 0 1 5,5v13a5,5 0 0 1 -5,5h-30.1875a5,5 0 0 1 -5,-5v-13a5,5 0 0 1 5,-5z" style="stroke: rgb(0, 0, 0); fill: rgb(112, 41, 33); stroke-width: 0;"/><text x="6" y="16" style="font-family: -apple-system, BlinkMacSystemFont, &quot;Segoe WPC&quot;, &quot;Segoe UI&quot;, Ubuntu, &quot;Droid Sans&quot;, sans-serif, &quot;PingFang SC&quot;; font-size: 11px; text-rendering: geometricprecision; user-select: none; fill: rgb(255, 255, 255);">/Relu</text><title>Relu</title></g><path class="node node-border" d="M5,0h30.1875a5,5 0 0 1 5,5v13a5,5 0 0 1 -5,5h-30.1875a5,5 0 0 1 -5,-5v-13a5,5 0 0 1 5,-5z" style="stroke: rgb(51, 51, 51); fill: none; stroke-width: 1px;"/></g><g id="node-name-/layer2/Gemm" class="node graph-node" style="" transform="translate(1.859375,269)"><g class="node-item node-item-type node-item-type-layer" transform="translate(0,0)"><path d="M5,0h74.921875a5,5 0 0 1 5,5v18a0,0 0 0 1 0,0h-84.921875a0,0 0 0 1 0,0v-18a5,5 0 0 1 5,-5z" style="stroke: rgb(0, 0, 0); fill: rgb(51, 85, 136); stroke-width: 0;"/><text x="6" y="16" style="font-family: -apple-system, BlinkMacSystemFont, &quot;Segoe WPC&quot;, &quot;Segoe UI&quot;, Ubuntu, &quot;Droid Sans&quot;, sans-serif, &quot;PingFang SC&quot;; font-size: 11px; text-rendering: geometricprecision; user-select: none; fill: rgb(255, 255, 255);">/layer2/Gemm</text><title>Gemm</title></g><g class="node-attribute-list" transform="translate(0,23)"><path d="M0,0h84.921875a0,0 0 0 1 0,0v43a5,5 0 0 1 -5,5h-74.921875a5,5 0 0 1 -5,-5v-43a0,0 0 0 1 0,0z" style="stroke: rgb(0, 0, 0); fill: rgb(255, 255, 255); stroke-width: 0;"/><g class="node-attribute"><text xml:space="preserve" x="6" y="14" style="font-family: -apple-system, BlinkMacSystemFont, &quot;Segoe WPC&quot;, &quot;Segoe UI&quot;, Ubuntu, &quot;Droid Sans&quot;, sans-serif, &quot;PingFang SC&quot;; font-size: 9px; font-weight: normal; text-rendering: geometricprecision; user-select: none;"><title>float32[32,32]</title><tspan style="font-weight: bold;">B</tspan><tspan>〈32×32〉</tspan></text></g><g class="node-attribute"><text xml:space="preserve" x="6" y="28" style="font-family: -apple-system, BlinkMacSystemFont, &quot;Segoe WPC&quot;, &quot;Segoe UI&quot;, Ubuntu, &quot;Droid Sans&quot;, sans-serif, &quot;PingFang SC&quot;; font-size: 9px; font-weight: normal; text-rendering: geometricprecision; user-select: none;"><title>float32[32]</title><tspan style="font-weight: bold;">C</tspan><tspan>〈32〉</tspan></text></g><g class="node-attribute"><text xml:space="preserve" x="6" y="42" style="font-family: -apple-system, BlinkMacSystemFont, &quot;Segoe WPC&quot;, &quot;Segoe UI&quot;, Ubuntu, &quot;Droid Sans&quot;, sans-serif, &quot;PingFang SC&quot;; font-size: 9px; font-weight: normal; text-rendering: geometricprecision; user-select: none;"><title>int64</title><tspan>transB</tspan><tspan> = 1</tspan></text></g><line class="node" x1="0" x2="84.921875" y1="0" y2="0" style="stroke: rgb(51, 51, 51); fill: none; stroke-width: 1px;"/></g><path class="node node-border" d="M5,0h74.921875a5,5 0 0 1 5,5v61a5,5 0 0 1 -5,5h-74.921875a5,5 0 0 1 -5,-5v-61a5,5 0 0 1 5,-5z" style="stroke: rgb(51, 51, 51); fill: none; stroke-width: 1px;"/></g><g id="node-name-/Relu_1" class="node graph-node" style="" transform="translate(18.9765625,384)"><g class="node-item node-item-type node-item-type-activation" transform="translate(0,0)"><path d="M5,0h40.6875a5,5 0 0 1 5,5v13a5,5 0 0 1 -5,5h-40.6875a5,5 0 0 1 -5,-5v-13a5,5 0 0 1 5,-5z" style="stroke: rgb(0, 0, 0); fill: rgb(112, 41, 33); stroke-width: 0;"/><text x="6" y="16" style="font-family: -apple-system, BlinkMacSystemFont, &quot;Segoe WPC&quot;, &quot;Segoe UI&quot;, Ubuntu, &quot;Droid Sans&quot;, sans-serif, &quot;PingFang SC&quot;; font-size: 11px; text-rendering: geometricprecision; user-select: none; fill: rgb(255, 255, 255);">/Relu_1</text><title>Relu</title></g><path class="node node-border" d="M5,0h40.6875a5,5 0 0 1 5,5v13a5,5 0 0 1 -5,5h-40.6875a5,5 0 0 1 -5,-5v-13a5,5 0 0 1 5,-5z" style="stroke: rgb(51, 51, 51); fill: none; stroke-width: 1px;"/></g><g id="node-name-/output/Gemm" class="node graph-node" style="" transform="translate(0,451)"><g class="node-item node-item-type node-item-type-layer" transform="translate(0,0)"><path d="M5,0h78.640625a5,5 0 0 1 5,5v18a0,0 0 0 1 0,0h-88.640625a0,0 0 0 1 0,0v-18a5,5 0 0 1 5,-5z" style="stroke: rgb(0, 0, 0); fill: rgb(51, 85, 136); stroke-width: 0;"/><text x="6" y="16" style="font-family: -apple-system, BlinkMacSystemFont, &quot;Segoe WPC&quot;, &quot;Segoe UI&quot;, Ubuntu, &quot;Droid Sans&quot;, sans-serif, &quot;PingFang SC&quot;; font-size: 11px; text-rendering: geometricprecision; user-select: none; fill: rgb(255, 255, 255);">/output/Gemm</text><title>Gemm</title></g><g class="node-attribute-list" transform="translate(0,23)"><path d="M0,0h88.640625a0,0 0 0 1 0,0v43a5,5 0 0 1 -5,5h-78.640625a5,5 0 0 1 -5,-5v-43a0,0 0 0 1 0,0z" style="stroke: rgb(0, 0, 0); fill: rgb(255, 255, 255); stroke-width: 0;"/><g class="node-attribute"><text xml:space="preserve" x="6" y="14" style="font-family: -apple-system, BlinkMacSystemFont, &quot;Segoe WPC&quot;, &quot;Segoe UI&quot;, Ubuntu, &quot;Droid Sans&quot;, sans-serif, &quot;PingFang SC&quot;; font-size: 9px; font-weight: normal; text-rendering: geometricprecision; user-select: none;"><title>float32[4,32]</title><tspan style="font-weight: bold;">B</tspan><tspan>〈4×32〉</tspan></text></g><g class="node-attribute"><text xml:space="preserve" x="6" y="28" style="font-family: -apple-system, BlinkMacSystemFont, &quot;Segoe WPC&quot;, &quot;Segoe UI&quot;, Ubuntu, &quot;Droid Sans&quot;, sans-serif, &quot;PingFang SC&quot;; font-size: 9px; font-weight: normal; text-rendering: geometricprecision; user-select: none;"><title>float32[4]</title><tspan style="font-weight: bold;">C</tspan><tspan>〈4〉</tspan></text></g><g class="node-attribute"><text xml:space="preserve" x="6" y="42" style="font-family: -apple-system, BlinkMacSystemFont, &quot;Segoe WPC&quot;, &quot;Segoe UI&quot;, Ubuntu, &quot;Droid Sans&quot;, sans-serif, &quot;PingFang SC&quot;; font-size: 9px; font-weight: normal; text-rendering: geometricprecision; user-select: none;"><title>int64</title><tspan>transB</tspan><tspan> = 1</tspan></text></g><line class="node" x1="0" x2="88.640625" y1="0" y2="0" style="stroke: rgb(51, 51, 51); fill: none; stroke-width: 1px;"/></g><path class="node node-border" d="M5,0h78.640625a5,5 0 0 1 5,5v61a5,5 0 0 1 -5,5h-78.640625a5,5 0 0 1 -5,-5v-61a5,5 0 0 1 5,-5z" style="stroke: rgb(51, 51, 51); fill: none; stroke-width: 1px;"/></g><g class="node" style="" transform="translate(20.775390625,566)"><g class="node-item graph-item-output" transform="translate(0,0)"><path d="M5,0h37.08984375a5,5 0 0 1 5,5v13a5,5 0 0 1 -5,5h-37.08984375a5,5 0 0 1 -5,-5v-13a5,5 0 0 1 5,-5z" style="stroke: rgb(0, 0, 0); fill: rgb(238, 238, 238); stroke-width: 0;"/><text x="6" y="16" style="font-family: -apple-system, BlinkMacSystemFont, &quot;Segoe WPC&quot;, &quot;Segoe UI&quot;, Ubuntu, &quot;Droid Sans&quot;, sans-serif, &quot;PingFang SC&quot;; font-size: 11px; text-rendering: geometricprecision; user-select: none;">output</text><title>float32[1,4]</title></g><path class="node node-border" d="M5,0h37.08984375a5,5 0 0 1 5,5v13a5,5 0 0 1 -5,5h-37.08984375a5,5 0 0 1 -5,-5v-13a5,5 0 0 1 5,-5z" style="stroke: rgb(51, 51, 51); fill: none; stroke-width: 1px;"/></g></g></g></svg>