<?xml version="1.0" encoding="UTF-8" standalone="no"?>
<!DOCTYPE svg PUBLIC "-//W3C//DTD SVG 1.1//EN"
 "http://www.w3.org/Graphics/SVG/1.1/DTD/svg11.dtd">
<!-- Generated by graphviz version 2.43.0 (0)
 -->
<!-- Title: %3 Pages: 1 -->
<svg width="337pt" height="864pt"
 viewBox="0.00 0.00 336.71 864.00" xmlns="http://www.w3.org/2000/svg" xmlns:xlink="http://www.w3.org/1999/xlink">
<g id="graph0" class="graph" transform="scale(1.01 1.01) rotate(0) translate(4 871)">
<title>%3</title>
<polygon fill="white" stroke="transparent" points="-4,4 -4,-871 337,-871 337,4 -4,4"/>
<!-- 133617044863504 -->
<g id="node1" class="node">
<title>133617044863504</title>
<polygon fill="#caff70" stroke="black" points="198.5,-31 144.5,-31 144.5,0 198.5,0 198.5,-31"/>
<text text-anchor="middle" x="171.5" y="-7" font-family="monospace" font-size="10.00"> ()</text>
</g>
<!-- 133617043701920 -->
<g id="node2" class="node">
<title>133617043701920</title>
<polygon fill="lightgrey" stroke="black" points="219,-86 124,-86 124,-67 219,-67 219,-86"/>
<text text-anchor="middle" x="171.5" y="-74" font-family="monospace" font-size="10.00">MeanBackward0</text>
</g>
<!-- 133617043701920&#45;&gt;133617044863504 -->
<g id="edge26" class="edge">
<title>133617043701920&#45;&gt;133617044863504</title>
<path fill="none" stroke="black" d="M171.5,-66.79C171.5,-60.07 171.5,-50.4 171.5,-41.34"/>
<polygon fill="black" stroke="black" points="175,-41.19 171.5,-31.19 168,-41.19 175,-41.19"/>
</g>
<!-- 133617043717808 -->
<g id="node3" class="node">
<title>133617043717808</title>
<polygon fill="lightgrey" stroke="black" points="219,-141 124,-141 124,-122 219,-122 219,-141"/>
<text text-anchor="middle" x="171.5" y="-129" font-family="monospace" font-size="10.00">ViewBackward0</text>
</g>
<!-- 133617043717808&#45;&gt;133617043701920 -->
<g id="edge1" class="edge">
<title>133617043717808&#45;&gt;133617043701920</title>
<path fill="none" stroke="black" d="M171.5,-121.75C171.5,-114.8 171.5,-104.85 171.5,-96.13"/>
<polygon fill="black" stroke="black" points="175,-96.09 171.5,-86.09 168,-96.09 175,-96.09"/>
</g>
<!-- 133617043715456 -->
<g id="node4" class="node">
<title>133617043715456</title>
<polygon fill="lightgrey" stroke="black" points="222,-196 121,-196 121,-177 222,-177 222,-196"/>
<text text-anchor="middle" x="171.5" y="-184" font-family="monospace" font-size="10.00">AddmmBackward0</text>
</g>
<!-- 133617043715456&#45;&gt;133617043717808 -->
<g id="edge2" class="edge">
<title>133617043715456&#45;&gt;133617043717808</title>
<path fill="none" stroke="black" d="M171.5,-176.75C171.5,-169.8 171.5,-159.85 171.5,-151.13"/>
<polygon fill="black" stroke="black" points="175,-151.09 171.5,-141.09 168,-151.09 175,-151.09"/>
</g>
<!-- 133617043714880 -->
<g id="node5" class="node">
<title>133617043714880</title>
<polygon fill="lightgrey" stroke="black" points="106,-251 5,-251 5,-232 106,-232 106,-251"/>
<text text-anchor="middle" x="55.5" y="-239" font-family="monospace" font-size="10.00">AccumulateGrad</text>
</g>
<!-- 133617043714880&#45;&gt;133617043715456 -->
<g id="edge3" class="edge">
<title>133617043714880&#45;&gt;133617043715456</title>
<path fill="none" stroke="black" d="M74.14,-231.98C92.8,-223.46 121.75,-210.23 143.24,-200.41"/>
<polygon fill="black" stroke="black" points="144.88,-203.51 152.52,-196.17 141.97,-197.14 144.88,-203.51"/>
</g>
<!-- 133617043411792 -->
<g id="node6" class="node">
<title>133617043411792</title>
<polygon fill="lightblue" stroke="black" points="97,-317 14,-317 14,-287 97,-287 97,-317"/>
<text text-anchor="middle" x="55.5" y="-305" font-family="monospace" font-size="10.00">output.bias</text>
<text text-anchor="middle" x="55.5" y="-294" font-family="monospace" font-size="10.00"> (7)</text>
</g>
<!-- 133617043411792&#45;&gt;133617043714880 -->
<g id="edge4" class="edge">
<title>133617043411792&#45;&gt;133617043714880</title>
<path fill="none" stroke="black" d="M55.5,-286.84C55.5,-279.21 55.5,-269.7 55.5,-261.45"/>
<polygon fill="black" stroke="black" points="59,-261.27 55.5,-251.27 52,-261.27 59,-261.27"/>
</g>
<!-- 133617043702304 -->
<g id="node7" class="node">
<title>133617043702304</title>
<polygon fill="lightgrey" stroke="black" points="219,-251 124,-251 124,-232 219,-232 219,-251"/>
<text text-anchor="middle" x="171.5" y="-239" font-family="monospace" font-size="10.00">ViewBackward0</text>
</g>
<!-- 133617043702304&#45;&gt;133617043715456 -->
<g id="edge5" class="edge">
<title>133617043702304&#45;&gt;133617043715456</title>
<path fill="none" stroke="black" d="M171.5,-231.75C171.5,-224.8 171.5,-214.85 171.5,-206.13"/>
<polygon fill="black" stroke="black" points="175,-206.09 171.5,-196.09 168,-206.09 175,-206.09"/>
</g>
<!-- 133617043717424 -->
<g id="node8" class="node">
<title>133617043717424</title>
<polygon fill="lightgrey" stroke="black" points="214,-311.5 119,-311.5 119,-292.5 214,-292.5 214,-311.5"/>
<text text-anchor="middle" x="166.5" y="-299.5" font-family="monospace" font-size="10.00">ReluBackward0</text>
</g>
<!-- 133617043717424&#45;&gt;133617043702304 -->
<g id="edge6" class="edge">
<title>133617043717424&#45;&gt;133617043702304</title>
<path fill="none" stroke="black" d="M167.24,-292.37C167.93,-284.25 169,-271.81 169.89,-261.39"/>
<polygon fill="black" stroke="black" points="173.39,-261.43 170.76,-251.17 166.42,-260.83 173.39,-261.43"/>
</g>
<!-- 133617043703744 -->
<g id="node9" class="node">
<title>133617043703744</title>
<polygon fill="lightgrey" stroke="black" points="214,-377.5 119,-377.5 119,-358.5 214,-358.5 214,-377.5"/>
<text text-anchor="middle" x="166.5" y="-365.5" font-family="monospace" font-size="10.00">ViewBackward0</text>
</g>
<!-- 133617043703744&#45;&gt;133617043717424 -->
<g id="edge7" class="edge">
<title>133617043703744&#45;&gt;133617043717424</title>
<path fill="none" stroke="black" d="M166.5,-358.37C166.5,-349.16 166.5,-334.29 166.5,-322.27"/>
<polygon fill="black" stroke="black" points="170,-321.91 166.5,-311.91 163,-321.91 170,-321.91"/>
</g>
<!-- 133617043703600 -->
<g id="node10" class="node">
<title>133617043703600</title>
<polygon fill="lightgrey" stroke="black" points="217,-438 116,-438 116,-419 217,-419 217,-438"/>
<text text-anchor="middle" x="166.5" y="-426" font-family="monospace" font-size="10.00">AddmmBackward0</text>
</g>
<!-- 133617043703600&#45;&gt;133617043703744 -->
<g id="edge8" class="edge">
<title>133617043703600&#45;&gt;133617043703744</title>
<path fill="none" stroke="black" d="M166.5,-418.87C166.5,-410.75 166.5,-398.31 166.5,-387.89"/>
<polygon fill="black" stroke="black" points="170,-387.67 166.5,-377.67 163,-387.67 170,-387.67"/>
</g>
<!-- 133617043705040 -->
<g id="node11" class="node">
<title>133617043705040</title>
<polygon fill="lightgrey" stroke="black" points="101,-493 0,-493 0,-474 101,-474 101,-493"/>
<text text-anchor="middle" x="50.5" y="-481" font-family="monospace" font-size="10.00">AccumulateGrad</text>
</g>
<!-- 133617043705040&#45;&gt;133617043703600 -->
<g id="edge9" class="edge">
<title>133617043705040&#45;&gt;133617043703600</title>
<path fill="none" stroke="black" d="M69.14,-473.98C87.8,-465.46 116.75,-452.23 138.24,-442.41"/>
<polygon fill="black" stroke="black" points="139.88,-445.51 147.52,-438.17 136.97,-439.14 139.88,-445.51"/>
</g>
<!-- 133617043411712 -->
<g id="node12" class="node">
<title>133617043411712</title>
<polygon fill="lightblue" stroke="black" points="92,-559 9,-559 9,-529 92,-529 92,-559"/>
<text text-anchor="middle" x="50.5" y="-547" font-family="monospace" font-size="10.00">layer2.bias</text>
<text text-anchor="middle" x="50.5" y="-536" font-family="monospace" font-size="10.00"> (32)</text>
</g>
<!-- 133617043411712&#45;&gt;133617043705040 -->
<g id="edge10" class="edge">
<title>133617043411712&#45;&gt;133617043705040</title>
<path fill="none" stroke="black" d="M50.5,-528.84C50.5,-521.21 50.5,-511.7 50.5,-503.45"/>
<polygon fill="black" stroke="black" points="54,-503.27 50.5,-493.27 47,-503.27 54,-503.27"/>
</g>
<!-- 133617043703456 -->
<g id="node13" class="node">
<title>133617043703456</title>
<polygon fill="lightgrey" stroke="black" points="214,-493 119,-493 119,-474 214,-474 214,-493"/>
<text text-anchor="middle" x="166.5" y="-481" font-family="monospace" font-size="10.00">ViewBackward0</text>
</g>
<!-- 133617043703456&#45;&gt;133617043703600 -->
<g id="edge11" class="edge">
<title>133617043703456&#45;&gt;133617043703600</title>
<path fill="none" stroke="black" d="M166.5,-473.75C166.5,-466.8 166.5,-456.85 166.5,-448.13"/>
<polygon fill="black" stroke="black" points="170,-448.09 166.5,-438.09 163,-448.09 170,-448.09"/>
</g>
<!-- 133617043713440 -->
<g id="node14" class="node">
<title>133617043713440</title>
<polygon fill="lightgrey" stroke="black" points="209,-553.5 114,-553.5 114,-534.5 209,-534.5 209,-553.5"/>
<text text-anchor="middle" x="161.5" y="-541.5" font-family="monospace" font-size="10.00">ReluBackward0</text>
</g>
<!-- 133617043713440&#45;&gt;133617043703456 -->
<g id="edge12" class="edge">
<title>133617043713440&#45;&gt;133617043703456</title>
<path fill="none" stroke="black" d="M162.24,-534.37C162.93,-526.25 164,-513.81 164.89,-503.39"/>
<polygon fill="black" stroke="black" points="168.39,-503.43 165.76,-493.17 161.42,-502.83 168.39,-503.43"/>
</g>
<!-- 133617043712768 -->
<g id="node15" class="node">
<title>133617043712768</title>
<polygon fill="lightgrey" stroke="black" points="209,-619.5 114,-619.5 114,-600.5 209,-600.5 209,-619.5"/>
<text text-anchor="middle" x="161.5" y="-607.5" font-family="monospace" font-size="10.00">ViewBackward0</text>
</g>
<!-- 133617043712768&#45;&gt;133617043713440 -->
<g id="edge13" class="edge">
<title>133617043712768&#45;&gt;133617043713440</title>
<path fill="none" stroke="black" d="M161.5,-600.37C161.5,-591.16 161.5,-576.29 161.5,-564.27"/>
<polygon fill="black" stroke="black" points="165,-563.91 161.5,-553.91 158,-563.91 165,-563.91"/>
</g>
<!-- 133617043716416 -->
<g id="node16" class="node">
<title>133617043716416</title>
<polygon fill="lightgrey" stroke="black" points="212,-680 111,-680 111,-661 212,-661 212,-680"/>
<text text-anchor="middle" x="161.5" y="-668" font-family="monospace" font-size="10.00">AddmmBackward0</text>
</g>
<!-- 133617043716416&#45;&gt;133617043712768 -->
<g id="edge14" class="edge">
<title>133617043716416&#45;&gt;133617043712768</title>
<path fill="none" stroke="black" d="M161.5,-660.87C161.5,-652.75 161.5,-640.31 161.5,-629.89"/>
<polygon fill="black" stroke="black" points="165,-629.67 161.5,-619.67 158,-629.67 165,-629.67"/>
</g>
<!-- 133617043708976 -->
<g id="node17" class="node">
<title>133617043708976</title>
<polygon fill="lightgrey" stroke="black" points="159,-735 58,-735 58,-716 159,-716 159,-735"/>
<text text-anchor="middle" x="108.5" y="-723" font-family="monospace" font-size="10.00">AccumulateGrad</text>
</g>
<!-- 133617043708976&#45;&gt;133617043716416 -->
<g id="edge15" class="edge">
<title>133617043708976&#45;&gt;133617043716416</title>
<path fill="none" stroke="black" d="M117.25,-715.75C124.97,-708.03 136.4,-696.6 145.72,-687.28"/>
<polygon fill="black" stroke="black" points="148.31,-689.64 152.91,-680.09 143.36,-684.69 148.31,-689.64"/>
</g>
<!-- 133617043107536 -->
<g id="node18" class="node">
<title>133617043107536</title>
<polygon fill="lightblue" stroke="black" points="149,-801 66,-801 66,-771 149,-771 149,-801"/>
<text text-anchor="middle" x="107.5" y="-789" font-family="monospace" font-size="10.00">layer1.bias</text>
<text text-anchor="middle" x="107.5" y="-778" font-family="monospace" font-size="10.00"> (32)</text>
</g>
<!-- 133617043107536&#45;&gt;133617043708976 -->
<g id="edge16" class="edge">
<title>133617043107536&#45;&gt;133617043708976</title>
<path fill="none" stroke="black" d="M107.74,-770.84C107.87,-763.21 108.03,-753.7 108.18,-745.45"/>
<polygon fill="black" stroke="black" points="111.68,-745.32 108.35,-735.27 104.68,-745.2 111.68,-745.32"/>
</g>
<!-- 133617043706192 -->
<g id="node19" class="node">
<title>133617043706192</title>
<polygon fill="lightgrey" stroke="black" points="255,-735 178,-735 178,-716 255,-716 255,-735"/>
<text text-anchor="middle" x="216.5" y="-723" font-family="monospace" font-size="10.00">TBackward0</text>
</g>
<!-- 133617043706192&#45;&gt;133617043716416 -->
<g id="edge17" class="edge">
<title>133617043706192&#45;&gt;133617043716416</title>
<path fill="none" stroke="black" d="M207.42,-715.75C199.41,-708.03 187.54,-696.6 177.88,-687.28"/>
<polygon fill="black" stroke="black" points="180.04,-684.51 170.41,-680.09 175.19,-689.55 180.04,-684.51"/>
</g>
<!-- 133617043707344 -->
<g id="node20" class="node">
<title>133617043707344</title>
<polygon fill="lightgrey" stroke="black" points="268,-795.5 167,-795.5 167,-776.5 268,-776.5 268,-795.5"/>
<text text-anchor="middle" x="217.5" y="-783.5" font-family="monospace" font-size="10.00">AccumulateGrad</text>
</g>
<!-- 133617043707344&#45;&gt;133617043706192 -->
<g id="edge18" class="edge">
<title>133617043707344&#45;&gt;133617043706192</title>
<path fill="none" stroke="black" d="M217.35,-776.37C217.21,-768.25 217,-755.81 216.82,-745.39"/>
<polygon fill="black" stroke="black" points="220.32,-745.11 216.65,-735.17 213.32,-745.23 220.32,-745.11"/>
</g>
<!-- 133617043108576 -->
<g id="node21" class="node">
<title>133617043108576</title>
<polygon fill="lightblue" stroke="black" points="265,-867 170,-867 170,-837 265,-837 265,-867"/>
<text text-anchor="middle" x="217.5" y="-855" font-family="monospace" font-size="10.00">layer1.weight</text>
<text text-anchor="middle" x="217.5" y="-844" font-family="monospace" font-size="10.00"> (32, 6)</text>
</g>
<!-- 133617043108576&#45;&gt;133617043707344 -->
<g id="edge19" class="edge">
<title>133617043108576&#45;&gt;133617043707344</title>
<path fill="none" stroke="black" d="M217.5,-836.8C217.5,-827.7 217.5,-815.79 217.5,-805.9"/>
<polygon fill="black" stroke="black" points="221,-805.84 217.5,-795.84 214,-805.84 221,-805.84"/>
</g>
<!-- 133617043704128 -->
<g id="node22" class="node">
<title>133617043704128</title>
<polygon fill="lightgrey" stroke="black" points="312,-493 235,-493 235,-474 312,-474 312,-493"/>
<text text-anchor="middle" x="273.5" y="-481" font-family="monospace" font-size="10.00">TBackward0</text>
</g>
<!-- 133617043704128&#45;&gt;133617043703600 -->
<g id="edge20" class="edge">
<title>133617043704128&#45;&gt;133617043703600</title>
<path fill="none" stroke="black" d="M256.31,-473.98C239.25,-465.54 212.87,-452.47 193.1,-442.68"/>
<polygon fill="black" stroke="black" points="194.52,-439.47 184,-438.17 191.41,-445.75 194.52,-439.47"/>
</g>
<!-- 133617043713200 -->
<g id="node23" class="node">
<title>133617043713200</title>
<polygon fill="lightgrey" stroke="black" points="328,-553.5 227,-553.5 227,-534.5 328,-534.5 328,-553.5"/>
<text text-anchor="middle" x="277.5" y="-541.5" font-family="monospace" font-size="10.00">AccumulateGrad</text>
</g>
<!-- 133617043713200&#45;&gt;133617043704128 -->
<g id="edge21" class="edge">
<title>133617043713200&#45;&gt;133617043704128</title>
<path fill="none" stroke="black" d="M276.91,-534.37C276.35,-526.25 275.5,-513.81 274.79,-503.39"/>
<polygon fill="black" stroke="black" points="278.27,-502.91 274.09,-493.17 271.28,-503.38 278.27,-502.91"/>
</g>
<!-- 133618133049536 -->
<g id="node24" class="node">
<title>133618133049536</title>
<polygon fill="lightblue" stroke="black" points="325,-625 230,-625 230,-595 325,-595 325,-625"/>
<text text-anchor="middle" x="277.5" y="-613" font-family="monospace" font-size="10.00">layer2.weight</text>
<text text-anchor="middle" x="277.5" y="-602" font-family="monospace" font-size="10.00"> (32, 32)</text>
</g>
<!-- 133618133049536&#45;&gt;133617043713200 -->
<g id="edge22" class="edge">
<title>133618133049536&#45;&gt;133617043713200</title>
<path fill="none" stroke="black" d="M277.5,-594.8C277.5,-585.7 277.5,-573.79 277.5,-563.9"/>
<polygon fill="black" stroke="black" points="281,-563.84 277.5,-553.84 274,-563.84 281,-563.84"/>
</g>
<!-- 133617043701872 -->
<g id="node25" class="node">
<title>133617043701872</title>
<polygon fill="lightgrey" stroke="black" points="315,-251 238,-251 238,-232 315,-232 315,-251"/>
<text text-anchor="middle" x="276.5" y="-239" font-family="monospace" font-size="10.00">TBackward0</text>
</g>
<!-- 133617043701872&#45;&gt;133617043715456 -->
<g id="edge23" class="edge">
<title>133617043701872&#45;&gt;133617043715456</title>
<path fill="none" stroke="black" d="M259.63,-231.98C242.89,-223.54 217,-210.47 197.61,-200.68"/>
<polygon fill="black" stroke="black" points="199.18,-197.55 188.68,-196.17 196.03,-203.8 199.18,-197.55"/>
</g>
<!-- 133617043703696 -->
<g id="node26" class="node">
<title>133617043703696</title>
<polygon fill="lightgrey" stroke="black" points="333,-311.5 232,-311.5 232,-292.5 333,-292.5 333,-311.5"/>
<text text-anchor="middle" x="282.5" y="-299.5" font-family="monospace" font-size="10.00">AccumulateGrad</text>
</g>
<!-- 133617043703696&#45;&gt;133617043701872 -->
<g id="edge24" class="edge">
<title>133617043703696&#45;&gt;133617043701872</title>
<path fill="none" stroke="black" d="M281.61,-292.37C280.78,-284.25 279.51,-271.81 278.44,-261.39"/>
<polygon fill="black" stroke="black" points="281.89,-260.76 277.39,-251.17 274.93,-261.47 281.89,-260.76"/>
</g>
<!-- 133617043411552 -->
<g id="node27" class="node">
<title>133617043411552</title>
<polygon fill="lightblue" stroke="black" points="330,-383 235,-383 235,-353 330,-353 330,-383"/>
<text text-anchor="middle" x="282.5" y="-371" font-family="monospace" font-size="10.00">output.weight</text>
<text text-anchor="middle" x="282.5" y="-360" font-family="monospace" font-size="10.00"> (7, 32)</text>
</g>
<!-- 133617043411552&#45;&gt;133617043703696 -->
<g id="edge25" class="edge">
<title>133617043411552&#45;&gt;133617043703696</title>
<path fill="none" stroke="black" d="M282.5,-352.8C282.5,-343.7 282.5,-331.79 282.5,-321.9"/>
<polygon fill="black" stroke="black" points="286,-321.84 282.5,-311.84 279,-321.84 286,-321.84"/>
</g>
</g>
</svg>
